Coordinates
version=1
nRows=13
nColumns=36
inDegrees=yes

Units are S.I. units (second, meters, Newtons, ...)
If the header above contains a line with 'inDegrees', this indicates whether rotational values are in degrees (yes) or radians (no).

endheader
time	pelvis_tilt	pelvis_list	pelvis_rotation	pelvis_tx	pelvis_ty	pelvis_tz	hip_flexion_r	hip_adduction_r	hip_rotation_r	knee_angle_r	knee_angle_r_beta	ankle_angle_r	subtalar_angle_r	mtp_angle_r	hip_flexion_l	hip_adduction_l	hip_rotation_l	knee_angle_l	knee_angle_l_beta	ankle_angle_l	subtalar_angle_l	mtp_angle_l	lumbar_extension	lumbar_bending	lumbar_rotation	arm_flex_r	arm_add_r	arm_rot_r	elbow_flex_r	pro_sup_r	arm_flex_l	arm_add_l	arm_rot_l	elbow_flex_l	pro_sup_l
      4.90000000	    -40.69728732	      3.71500796	     -3.05051169	      0.93714679	      0.60279724	      0.11566235	    109.64584529	    -16.00113985	      2.86876957	     94.33415721	      1.64644164	     28.48059234	     -6.22409076	     -7.49999987	    108.44163469	     -7.82329711	      4.31578508	     95.27330477	      1.66283286	     29.50564063	    -12.09471321	     -7.49999987	    -28.46753184	      2.28346601	     10.35106180	     89.62294967	    -17.46382085	     97.22117749	    124.34008702	     82.22079341	     76.85578353	      5.22337372	     59.48862892	    112.23520285	    108.51040929
      4.91666670	    -40.78127978	      3.73541900	     -3.15040257	      0.93740766	      0.61517308	      0.11502391	    109.15306231	    -15.89247667	      2.70393967	     93.63054880	      1.63416136	     28.15275263	     -6.38860218	     -7.49999987	    108.07344799	     -7.90444679	      4.28720875	     94.77191903	      1.65408203	     29.54109863	    -11.96007250	     -7.49999987	    -28.82858926	      2.35447184	     10.52811453	     89.54978594	    -17.96246125	     95.96864040	    122.92930664	     83.86137341	     76.98529790	      4.82352800	     59.47031658	    111.33311289	    110.48631459
      4.93333330	    -40.77223074	      3.73624110	     -3.23010438	      0.93085046	      0.61448534	      0.11821472	    108.58630814	    -15.69487491	      2.56989651	     92.86330676	      1.62077046	     27.78580781	     -6.48535819	     -7.49999987	    107.62561837	     -8.10370262	      4.17546408	     94.18809876	      1.64389244	     29.40024603	    -11.90006149	     -7.49999987	    -28.90639438	      2.19728575	     11.04992712	     90.51719056	    -17.62893727	     96.16019684	    123.41623673	     83.99011477	     77.44637181	      5.36934621	     58.49673016	    112.60722990	    110.36946166
      4.95000000	    -40.82085007	      3.65396310	     -3.25418113	      0.91860125	      0.61279764	      0.10962077	    108.38757258	    -15.72582000	      2.27134688	     92.23034434	      1.60972318	     27.38246775	     -6.44886578	     -7.49999987	    107.61002102	     -8.14721941	      4.12278835	     93.73581018	      1.63599851	     28.75815456	    -12.19292138	     -7.49999987	    -28.74417423	      2.34418275	     11.45978901	     92.71226348	    -18.50755263	     96.58812073	    125.12359238	     83.15608707	     79.05958834	      6.57583103	     57.32311638	    112.63775691	    108.59103048
      4.96666670	    -40.71735947	      3.65720942	     -3.26548175	      0.92540943	      0.61999103	      0.11407647	    107.89398211	    -15.76170266	      1.99712335	     91.49259124	      1.59684696	     27.03685789	     -6.27029675	     -7.49999987	    107.21265819	     -8.06849301	      4.07675852	     93.11267372	      1.62512273	     28.38175365	    -12.45699574	     -7.49999987	    -28.42894528	      2.38570494	     11.29649506	     91.98711491	    -17.92366551	     94.09711247	    124.94164549	     83.36520825	     78.97194865	      6.46537114	     57.04683651	    113.28514446	    109.12748885
      4.98333330	    -40.46263646	      3.55843915	     -3.26876867	      0.91947990	      0.62244598	      0.12230560	    107.22681859	    -15.67690694	      1.72927722	     90.80251694	      1.58480289	     26.69541521	     -6.07597178	     -7.49999987	    106.69304317	     -8.10224369	      4.13282575	     92.49430507	      1.61433016	     28.20693644	    -12.48955451	     -7.49999987	    -27.95340099	      2.24766966	     11.33849969	     91.52520978	    -17.47316632	     94.36190805	    125.62233901	     83.43203565	     78.95513380	      5.56847016	     57.20269701	    113.27464663	    109.19441116
      5.00000000	    -40.38638574	      3.55998269	     -3.30342732	      0.92007679	      0.62627917	      0.11657854	    106.72835978	    -15.59648904	      1.48972193	     90.02903744	      1.57130313	     26.49464959	     -5.94096683	     -7.49999987	    106.24771837	     -8.10166377	      4.12403315	     91.77942231	      1.60185310	     28.04484554	    -12.48162705	     -7.49999987	    -27.29380222	      2.37065733	     10.95025774	     91.58948439	    -17.21610996	     94.39588896	    126.18493317	     83.45873560	     79.39687936	      5.52469367	     57.27764522	    113.17557186	    109.22827640
      5.01666670	    -39.93659014	      3.38711841	     -3.19379266	      0.90849858	      0.63524728	      0.12184298	    105.69225902	    -15.56984542	      1.16992762	     89.05786178	      1.55435291	     25.80730781	     -6.09262820	     -7.49999987	    105.38026040	     -7.94967265	      4.21891062	     90.85211441	      1.58566853	     27.20725394	    -13.04518447	     -7.49999987	    -27.50250897	      2.28609938	     11.15506275	     92.50133812	    -17.15706550	     93.65176135	    126.37103733	     83.47814602	     81.20128470	      4.83668100	     57.83107958	    113.65027344	    109.03179469
      5.03333330	    -39.75308891	      3.39275507	     -3.18257185	      0.92870104	      0.65635477	      0.11961303	    104.16354935	    -15.52211628	      0.78744896	     87.26876546	      1.52312729	     25.30712259	     -5.99024896	     -7.49999987	    103.91142128	     -7.76412903	      4.19135428	     89.18814616	      1.55662680	     26.94719335	    -13.09616696	     -7.49999987	    -27.45204371	      2.28700670	     10.88152494	     90.82530711	    -16.65000147	     94.53219335	    124.54414561	     83.59603722	     79.37658463	      4.36941937	     57.99448163	    113.23689459	    109.42676217
      5.05000000	    -39.32509215	      3.28252736	     -3.30361070	      0.94803290	      0.67290202	      0.12407097	    101.53968227	    -15.30106361	      0.31496991	     84.83067251	      1.48057454	     24.85343465	     -5.93821383	     -7.49999987	    101.41607087	     -7.61236575	      4.33085937	     87.00913334	      1.51859586	     27.11982728	    -12.77569392	     -7.49999987	    -27.64010033	      2.23612075	     10.41362839	     88.25995951	    -15.72616175	     95.36728534	    124.04736505	     84.93281358	     76.41058183	      3.40699843	     58.55824240	    113.41419299	    110.94114013
      5.06666670	    -38.79479276	      3.08130596	     -3.30284556	      0.93491318	      0.67284072	      0.12956978	     99.15806480	    -14.97347398	      0.03003343	     82.70749899	      1.44351817	     24.34808517	     -6.08446310	     -7.49999987	     99.16878581	     -7.63469691	      4.32795326	     85.04750845	      1.48435904	     27.19528181	    -12.41735560	     -7.49999987	    -27.16227986	      2.06851865	     10.52552267	     87.37960213	    -15.29085314	     94.59587630	    125.40237854	     84.65314304	     76.76100130	      3.43832734	     58.25868739	    115.87539353	    109.52597689
      5.08333330	    -38.26154510	      2.90798377	     -3.24623343	      0.92252563	      0.67887838	      0.12740243	     97.29828716	    -14.67535150	     -0.24598401	     80.91710237	      1.41226986	     23.76232996	     -6.32745529	     -7.49999987	     97.44377434	     -7.73862555	      4.21741885	     83.35879689	      1.45488547	     26.88893305	    -12.30183564	     -7.49999987	    -26.76152656	      1.84961721	     10.50560937	     88.11412038	    -15.71568356	     92.35950310	    126.24260311	     85.54785002	     79.39078660	      4.17671379	     58.23303537	    115.01039924	    109.67145723
      5.10000000	    -37.88020110	      2.70745145	     -3.23894553	      0.92880591	      0.68696433	      0.13164179	     95.67072704	    -14.31981226	     -0.64329118	     79.25830047	      1.38331830	     23.30319520	     -6.51692895	     -7.49999987	     95.99907610	     -7.87527235	      4.25170700	     81.81755872	      1.42798579	     26.47156054	    -12.38604189	     -7.49999987	    -25.99217375	      1.79746904	     10.18223936	     87.67484676	    -14.98220679	     91.36489715	    127.18708073	     85.83221112	     79.32546149	      3.35626309	     58.84194853	    115.56839230	    109.60063695
